<mxfile host="app.diagrams.net" modified="2024-05-18T19:00:49.339Z" agent="Mozilla/5.0 (Windows NT 10.0; Win64; x64) AppleWebKit/537.36 (KHTML, like Gecko) Chrome/125.0.0.0 Safari/537.36" etag="ACSaR0kMOfPzBEIMRfAC" version="24.4.4" type="github">
  <diagram name="Página-1" id="sl7sTdMY0op9FTP-0M1A">
    <mxGraphModel dx="880" dy="468" grid="1" gridSize="10" guides="1" tooltips="1" connect="1" arrows="1" fold="1" page="1" pageScale="1" pageWidth="827" pageHeight="1169" math="0" shadow="0">
      <root>
        <mxCell id="0" />
        <mxCell id="1" parent="0" />
        <mxCell id="L31xm1w_3n-owmPeFAcx-3" style="edgeStyle=orthogonalEdgeStyle;rounded=0;orthogonalLoop=1;jettySize=auto;html=1;" edge="1" parent="1" source="L31xm1w_3n-owmPeFAcx-1">
          <mxGeometry relative="1" as="geometry">
            <mxPoint x="414" y="120" as="targetPoint" />
          </mxGeometry>
        </mxCell>
        <mxCell id="L31xm1w_3n-owmPeFAcx-5" style="edgeStyle=orthogonalEdgeStyle;rounded=0;orthogonalLoop=1;jettySize=auto;html=1;" edge="1" parent="1" source="L31xm1w_3n-owmPeFAcx-1">
          <mxGeometry relative="1" as="geometry">
            <mxPoint x="540" y="30" as="targetPoint" />
          </mxGeometry>
        </mxCell>
        <mxCell id="L31xm1w_3n-owmPeFAcx-1" value="&lt;b&gt;INICIO&lt;/b&gt;" style="rounded=1;whiteSpace=wrap;html=1;" vertex="1" parent="1">
          <mxGeometry x="354" width="120" height="60" as="geometry" />
        </mxCell>
        <mxCell id="L31xm1w_3n-owmPeFAcx-2" value="&lt;font style=&quot;font-size: 20px;&quot;&gt;&lt;b style=&quot;background-color: rgb(0, 0, 255);&quot;&gt;CLASSIFICADOR&amp;nbsp;&lt;/b&gt;&lt;/font&gt;&lt;div&gt;&lt;font style=&quot;font-size: 20px;&quot;&gt;&lt;b style=&quot;background-color: rgb(0, 0, 255);&quot;&gt;DE MÉDIA&lt;/b&gt;&lt;/font&gt;&lt;/div&gt;" style="text;html=1;align=center;verticalAlign=middle;resizable=0;points=[];autosize=1;strokeColor=none;fillColor=none;labelBorderColor=default;" vertex="1" parent="1">
          <mxGeometry x="40" y="3" width="190" height="60" as="geometry" />
        </mxCell>
        <mxCell id="L31xm1w_3n-owmPeFAcx-8" style="edgeStyle=orthogonalEdgeStyle;rounded=0;orthogonalLoop=1;jettySize=auto;html=1;" edge="1" parent="1" source="L31xm1w_3n-owmPeFAcx-4" target="L31xm1w_3n-owmPeFAcx-7">
          <mxGeometry relative="1" as="geometry" />
        </mxCell>
        <mxCell id="L31xm1w_3n-owmPeFAcx-4" value="Olá vamos ver sua média. Digite suas duas notas:" style="rounded=0;whiteSpace=wrap;html=1;" vertex="1" parent="1">
          <mxGeometry x="354" y="120" width="120" height="60" as="geometry" />
        </mxCell>
        <mxCell id="L31xm1w_3n-owmPeFAcx-6" value="Nota1&lt;div&gt;Nota2&lt;/div&gt;&lt;div&gt;Media&lt;/div&gt;" style="rounded=0;whiteSpace=wrap;html=1;align=left;" vertex="1" parent="1">
          <mxGeometry x="540" y="3" width="120" height="60" as="geometry" />
        </mxCell>
        <mxCell id="L31xm1w_3n-owmPeFAcx-9" style="edgeStyle=orthogonalEdgeStyle;rounded=0;orthogonalLoop=1;jettySize=auto;html=1;" edge="1" parent="1" source="L31xm1w_3n-owmPeFAcx-7">
          <mxGeometry relative="1" as="geometry">
            <mxPoint x="414" y="320" as="targetPoint" />
          </mxGeometry>
        </mxCell>
        <mxCell id="L31xm1w_3n-owmPeFAcx-7" value="&lt;b&gt;Nota1 &lt;/b&gt;&amp;lt;- entrada&lt;div&gt;&lt;b&gt;Nota2 &lt;/b&gt;&amp;lt;- entrada&lt;/div&gt;" style="ellipse;whiteSpace=wrap;html=1;align=center;" vertex="1" parent="1">
          <mxGeometry x="354" y="230" width="120" height="50" as="geometry" />
        </mxCell>
        <mxCell id="L31xm1w_3n-owmPeFAcx-10" value="&lt;b&gt;Media &lt;/b&gt;= (Nota1 + Nota2) / 2" style="ellipse;whiteSpace=wrap;html=1;" vertex="1" parent="1">
          <mxGeometry x="330" y="320" width="176" height="40" as="geometry" />
        </mxCell>
        <mxCell id="L31xm1w_3n-owmPeFAcx-11" value="" style="shape=singleArrow;direction=west;whiteSpace=wrap;html=1;" vertex="1" parent="1">
          <mxGeometry x="200" y="310" width="100" height="60" as="geometry" />
        </mxCell>
        <mxCell id="L31xm1w_3n-owmPeFAcx-12" value="" style="shape=singleArrow;whiteSpace=wrap;html=1;" vertex="1" parent="1">
          <mxGeometry x="530" y="310" width="100" height="60" as="geometry" />
        </mxCell>
        <mxCell id="L31xm1w_3n-owmPeFAcx-13" value="" style="shape=singleArrow;direction=south;whiteSpace=wrap;html=1;" vertex="1" parent="1">
          <mxGeometry x="384" y="370" width="60" height="100" as="geometry" />
        </mxCell>
        <mxCell id="L31xm1w_3n-owmPeFAcx-17" style="edgeStyle=orthogonalEdgeStyle;rounded=0;orthogonalLoop=1;jettySize=auto;html=1;" edge="1" parent="1" source="L31xm1w_3n-owmPeFAcx-14">
          <mxGeometry relative="1" as="geometry">
            <mxPoint x="130" y="440" as="targetPoint" />
          </mxGeometry>
        </mxCell>
        <mxCell id="L31xm1w_3n-owmPeFAcx-14" value="Se Media &amp;lt; 5" style="rounded=0;whiteSpace=wrap;html=1;" vertex="1" parent="1">
          <mxGeometry x="70" y="310" width="120" height="60" as="geometry" />
        </mxCell>
        <mxCell id="L31xm1w_3n-owmPeFAcx-18" style="edgeStyle=orthogonalEdgeStyle;rounded=0;orthogonalLoop=1;jettySize=auto;html=1;" edge="1" parent="1" source="L31xm1w_3n-owmPeFAcx-15">
          <mxGeometry relative="1" as="geometry">
            <mxPoint x="700" y="440" as="targetPoint" />
          </mxGeometry>
        </mxCell>
        <mxCell id="L31xm1w_3n-owmPeFAcx-15" value="Se 5 &amp;lt;= Media &amp;lt;= 8" style="rounded=0;whiteSpace=wrap;html=1;" vertex="1" parent="1">
          <mxGeometry x="640" y="310" width="120" height="60" as="geometry" />
        </mxCell>
        <mxCell id="L31xm1w_3n-owmPeFAcx-19" style="edgeStyle=orthogonalEdgeStyle;rounded=0;orthogonalLoop=1;jettySize=auto;html=1;exitX=0.5;exitY=1;exitDx=0;exitDy=0;" edge="1" parent="1" source="L31xm1w_3n-owmPeFAcx-16">
          <mxGeometry relative="1" as="geometry">
            <mxPoint x="414" y="600" as="targetPoint" />
          </mxGeometry>
        </mxCell>
        <mxCell id="L31xm1w_3n-owmPeFAcx-16" value="Se Media &amp;gt; 8" style="rounded=0;whiteSpace=wrap;html=1;" vertex="1" parent="1">
          <mxGeometry x="354" y="480" width="120" height="60" as="geometry" />
        </mxCell>
        <mxCell id="L31xm1w_3n-owmPeFAcx-20" value="REPROVADO" style="ellipse;whiteSpace=wrap;html=1;aspect=fixed;" vertex="1" parent="1">
          <mxGeometry x="90" y="440" width="80" height="80" as="geometry" />
        </mxCell>
        <mxCell id="L31xm1w_3n-owmPeFAcx-21" value="RECUPERAÇÃO" style="ellipse;whiteSpace=wrap;html=1;aspect=fixed;" vertex="1" parent="1">
          <mxGeometry x="650" y="440" width="100" height="100" as="geometry" />
        </mxCell>
        <mxCell id="L31xm1w_3n-owmPeFAcx-25" style="edgeStyle=orthogonalEdgeStyle;rounded=0;orthogonalLoop=1;jettySize=auto;html=1;exitX=0.5;exitY=1;exitDx=0;exitDy=0;" edge="1" parent="1" source="L31xm1w_3n-owmPeFAcx-22">
          <mxGeometry relative="1" as="geometry">
            <mxPoint x="414" y="780" as="targetPoint" />
          </mxGeometry>
        </mxCell>
        <mxCell id="L31xm1w_3n-owmPeFAcx-22" value="APROVADO" style="ellipse;whiteSpace=wrap;html=1;aspect=fixed;" vertex="1" parent="1">
          <mxGeometry x="374" y="600" width="80" height="80" as="geometry" />
        </mxCell>
        <mxCell id="L31xm1w_3n-owmPeFAcx-24" value="" style="endArrow=classic;html=1;rounded=0;exitX=0.5;exitY=1;exitDx=0;exitDy=0;" edge="1" parent="1" source="L31xm1w_3n-owmPeFAcx-20">
          <mxGeometry width="50" height="50" relative="1" as="geometry">
            <mxPoint x="390" y="670" as="sourcePoint" />
            <mxPoint x="350" y="800" as="targetPoint" />
            <Array as="points">
              <mxPoint x="130" y="800" />
            </Array>
          </mxGeometry>
        </mxCell>
        <mxCell id="L31xm1w_3n-owmPeFAcx-26" value="" style="endArrow=classic;html=1;rounded=0;exitX=0.5;exitY=1;exitDx=0;exitDy=0;" edge="1" parent="1" source="L31xm1w_3n-owmPeFAcx-21">
          <mxGeometry width="50" height="50" relative="1" as="geometry">
            <mxPoint x="390" y="670" as="sourcePoint" />
            <mxPoint x="480" y="800" as="targetPoint" />
            <Array as="points">
              <mxPoint x="700" y="800" />
            </Array>
          </mxGeometry>
        </mxCell>
        <mxCell id="L31xm1w_3n-owmPeFAcx-27" value="&lt;b&gt;FIM&lt;/b&gt;" style="rounded=1;whiteSpace=wrap;html=1;" vertex="1" parent="1">
          <mxGeometry x="354" y="780" width="120" height="60" as="geometry" />
        </mxCell>
      </root>
    </mxGraphModel>
  </diagram>
</mxfile>
